<svg version="1.1" id="Layer_1" xmlns="http://www.w3.org/2000/svg" xmlns:xlink="http://www.w3.org/1999/xlink" x="0px" y="0px"
	 width="100%" viewBox="0 0 800 200" enable-background="new 0 0 800 200" xml:space="preserve">
<path fill="#000000" opacity="1.000000" stroke="none" 
	d="
M523.000000,201.000000 
	C348.666687,201.000000 174.833374,201.000000 1.000047,201.000000 
	C1.000031,134.333359 1.000031,67.666725 1.000015,1.000065 
	C267.666595,1.000043 534.333191,1.000043 800.999878,1.000021 
	C800.999878,67.666603 800.999878,134.333206 800.999939,200.999908 
	C708.500000,201.000000 616.000000,201.000000 523.000000,201.000000 
M10.033228,94.763695 
	C10.345737,100.889267 10.316782,107.054955 11.030996,113.133324 
	C13.837031,137.014297 25.474182,156.121506 44.351982,170.449661 
	C65.619270,186.591415 90.203690,191.594986 116.083290,186.573792 
	C164.466019,177.186508 194.054443,134.231735 185.866653,85.121071 
	C182.307785,63.774895 171.647919,46.272762 154.650375,32.922508 
	C134.078140,16.764585 110.563408,11.431681 84.818199,14.972865 
	C60.890755,18.264021 41.900387,29.968969 27.179813,48.816849 
	C16.868643,62.019024 11.954764,77.375443 10.033228,94.763695 
z"/>
<path fill="#3A3445" opacity="1.000000" stroke="none" 
	d="
M10.041420,94.295769 
	C11.954764,77.375443 16.868643,62.019024 27.179813,48.816849 
	C41.900387,29.968969 60.890755,18.264021 84.818199,14.972865 
	C110.563408,11.431681 134.078140,16.764585 154.650375,32.922508 
	C171.647919,46.272762 182.307785,63.774895 185.866653,85.121071 
	C194.054443,134.231735 164.466019,177.186508 116.083290,186.573792 
	C90.203690,191.594986 65.619270,186.591415 44.351982,170.449661 
	C25.474182,156.121506 13.837031,137.014297 11.030996,113.133324 
	C10.316782,107.054955 10.345737,100.889267 10.041420,94.295769 
M38.290283,158.211349 
	C59.932106,180.249191 86.162804,188.673615 116.203560,182.291214 
	C161.105179,172.751511 188.488556,130.434204 179.820374,85.411102 
	C172.428482,47.017090 136.595383,12.890518 87.323433,19.458080 
	C54.913597,23.778057 31.820316,42.545067 20.875032,73.588959 
	C9.988062,104.467476 15.933278,132.914154 38.290283,158.211349 
z"/>
<path fill="#E9EEEC" opacity="1.000000" stroke="none" 
	d="
M38.067547,157.934204 
	C15.933278,132.914154 9.988062,104.467476 20.875032,73.588959 
	C31.820316,42.545067 54.913597,23.778057 87.323433,19.458080 
	C136.595383,12.890518 172.428482,47.017090 179.820374,85.411102 
	C188.488556,130.434204 161.105179,172.751511 116.203560,182.291214 
	C86.162804,188.673615 59.932106,180.249191 38.067547,157.934204 
M28.444099,73.459137 
	C26.814785,79.920166 25.185469,86.381203 23.223427,93.616570 
	C20.130404,127.426773 37.686386,157.569824 68.981071,170.969223 
	C88.135101,179.170349 107.680153,179.606842 127.833321,171.177048 
	C155.722092,158.784668 170.980148,137.290237 174.390686,106.584290 
	C174.377167,106.051956 174.363632,105.519623 174.697388,104.170097 
	C174.244247,98.878708 174.286774,93.488998 173.259796,88.311424 
	C164.793854,45.629417 126.543930,19.190439 83.787132,27.208309 
	C60.170082,31.637039 42.812363,45.396484 31.305996,67.334274 
	C30.541059,69.223526 29.776125,71.112785 28.444099,73.459137 
z"/>
<path fill="#353043" opacity="1.000000" stroke="none" 
	d="
M31.866251,66.956909 
	C42.812363,45.396484 60.170082,31.637039 83.787132,27.208309 
	C126.543930,19.190439 164.793854,45.629417 173.259796,88.311424 
	C174.286774,93.488998 174.244247,98.878708 174.325256,104.684143 
	C173.990250,105.806480 174.027359,106.414772 174.064484,107.023071 
	C170.980148,137.290237 155.722092,158.784668 127.465042,170.826721 
	C128.036331,169.326706 129.041458,168.223557 129.899063,167.015701 
	C130.992447,165.475784 131.966599,163.851212 133.336487,162.150421 
	C136.442184,160.353485 139.203537,158.669250 142.263977,157.100494 
	C143.337433,156.348923 144.111786,155.481888 145.071320,154.354340 
	C147.773422,151.377991 150.290329,148.662170 153.096558,145.760010 
	C155.655365,142.077728 157.924850,138.581757 160.431915,134.868103 
	C161.005783,134.100754 161.342056,133.551102 161.857391,132.921509 
	C162.186050,132.304382 162.335663,131.767181 162.412506,130.883881 
	C162.677505,129.675049 163.015289,128.812317 163.475128,127.843521 
	C163.748566,127.581543 163.873657,127.406776 164.229797,126.949051 
	C165.926270,120.782013 167.365387,114.879082 168.926117,108.608063 
	C169.031799,105.418877 169.015900,102.597794 168.998260,99.328583 
	C168.113754,90.782257 171.519943,81.353531 161.836044,75.955887 
	C161.286758,75.649727 161.425308,74.264450 160.890656,73.744446 
	C159.817474,72.700684 158.500107,71.908005 157.203186,70.686783 
	C156.413177,69.830284 155.703476,69.298706 155.015076,68.420547 
	C156.349609,63.646164 154.496704,61.811947 150.061707,61.707088 
	C149.305450,60.468040 148.594208,59.577930 147.882965,58.687817 
	C146.901947,59.839787 145.920944,60.991760 144.822296,62.281864 
	C147.137253,63.053501 148.572525,63.531918 150.073578,64.372139 
	C150.457962,65.917610 150.776550,67.101265 150.832199,68.493134 
	C147.411957,69.861809 145.992508,71.632759 148.066727,74.811234 
	C146.941986,74.910881 146.190659,74.961479 145.264252,74.638580 
	C143.060486,74.456612 141.031799,74.648140 138.998444,74.404709 
	C138.940201,72.811134 138.886597,71.652519 139.125397,70.337181 
	C140.764969,68.759270 142.112137,67.338081 143.459320,65.916901 
	C143.169800,65.372284 142.880295,64.827675 142.590790,64.283058 
	C140.324127,64.679588 137.854858,64.673096 135.886276,65.662643 
	C135.049286,66.083359 135.260788,68.589912 134.862823,70.458015 
	C132.818817,72.442146 130.907776,74.116814 128.551086,75.838303 
	C126.490013,75.480812 124.874580,75.076500 123.560349,74.747574 
	C126.362030,70.816360 128.796310,67.400650 131.381805,63.849960 
	C131.724686,63.521660 131.885544,63.305428 132.130127,62.655731 
	C132.758835,59.716999 133.272995,57.188805 133.827744,54.364174 
	C133.247040,51.774971 132.625763,49.482201 132.309387,47.010643 
	C134.313873,42.585278 133.525543,41.747753 127.669540,42.031956 
	C125.215767,42.015018 123.196335,42.006081 121.078339,41.641182 
	C120.135376,39.487587 119.290985,37.689953 118.446602,35.892319 
	C117.865822,35.978291 117.285042,36.064262 116.704269,36.150238 
	C116.397888,38.766262 116.091515,41.382286 115.432404,44.002121 
	C113.727501,44.334721 112.375320,44.663513 110.713554,44.788185 
	C107.644562,43.378738 105.420197,43.949478 104.387054,46.872807 
	C104.120132,47.628075 105.019272,48.795444 105.382767,49.773514 
	C107.278465,48.849464 109.174164,47.925419 111.410812,47.085541 
	C112.520233,48.495152 113.288696,49.820591 113.883560,51.430618 
	C110.158821,54.818752 106.665833,57.994339 102.998917,60.954460 
	C102.392548,61.443943 101.025223,60.990780 100.106171,60.579819 
	C100.202782,55.192883 100.202782,50.199371 100.202782,45.205856 
	C99.459190,45.187885 98.715591,45.169914 97.972000,45.151939 
	C97.675507,49.101795 97.379005,53.051651 96.720184,57.018799 
	C94.949249,57.343452 93.540642,57.650814 91.893143,57.838623 
	C91.450409,57.432846 91.246559,57.146622 91.112778,56.490585 
	C91.456215,54.110722 91.729591,52.100658 92.312393,49.852760 
	C92.112923,47.884403 91.604027,46.153885 91.095123,44.423363 
	C89.732895,45.282139 88.370667,46.140907 86.638206,47.005222 
	C84.502968,46.647972 82.737953,46.285179 81.119919,45.556301 
	C82.628082,41.946060 82.577141,39.007236 79.538109,36.431847 
	C76.303108,39.803501 75.835625,43.133507 78.174675,47.035847 
	C77.578392,48.267956 77.259674,49.231098 76.552582,50.137840 
	C74.538704,50.278210 72.913200,50.474972 72.138550,50.568741 
	C77.579880,53.594112 83.181946,56.708851 88.361603,59.897041 
	C85.089851,60.050842 82.240494,60.131187 79.175690,59.969044 
	C77.212593,58.753098 75.464951,57.779640 72.774582,56.281071 
	C73.752296,61.531025 74.195694,65.535233 80.227264,64.852669 
	C81.266609,64.593628 81.966438,64.449745 82.645241,64.651871 
	C81.743187,69.390846 85.490288,70.320084 88.087234,72.437965 
	C88.835114,72.939011 89.493164,73.179420 90.151222,73.419830 
	C89.861938,72.968231 89.572655,72.516640 89.254776,71.665161 
	C88.617142,69.272789 88.008087,67.280289 87.718956,64.959900 
	C88.423546,63.163841 88.808220,61.695675 89.507370,60.430210 
	C91.725548,65.713028 93.629250,70.793152 95.143059,75.951347 
	C93.344009,76.750908 91.934868,77.472397 90.214027,78.073624 
	C88.172592,76.985817 86.525360,75.810684 84.699516,75.084877 
	C73.968040,70.818954 65.937675,64.423531 65.042747,51.507065 
	C64.648140,53.003880 64.253532,54.500694 63.541222,55.997971 
	C62.589031,55.996296 61.954536,55.994156 61.181870,55.651512 
	C58.901249,53.879932 56.912415,52.066597 54.572712,51.126385 
	C52.279358,50.204796 51.411880,51.720711 51.685898,54.002213 
	C47.088600,54.061787 48.854179,56.139866 49.996529,58.374439 
	C49.316795,60.169453 48.640793,61.599930 47.651360,62.881386 
	C45.394112,62.052601 43.450298,61.372826 41.177845,60.578125 
	C40.728149,62.422939 40.360619,63.930691 39.909355,65.781921 
	C37.301765,66.162857 34.584007,66.559883 31.866251,66.956909 
M143.380463,51.035278 
	C141.733994,51.598354 139.570679,51.712700 138.584274,52.848839 
	C137.567856,54.019547 137.697800,56.185555 137.326157,57.916084 
	C139.409348,57.473160 141.931961,57.589058 143.434433,56.407612 
	C144.602173,55.489372 147.828293,53.311035 143.380463,51.035278 
M96.359833,35.171421 
	C95.482628,38.305561 95.574982,41.043446 99.197754,42.483749 
	C102.540382,39.814629 101.923660,36.897293 99.914940,34.093082 
	C99.634293,33.701294 97.900406,34.350498 96.359833,35.171421 
M69.223885,46.812397 
	C70.950188,44.570011 70.525009,42.728142 67.786972,42.156227 
	C66.794678,41.948959 65.488869,43.242596 64.326118,43.851383 
	C65.702225,44.942688 67.078323,46.033989 69.223885,46.812397 
M87.072571,36.544003 
	C87.428551,37.843704 87.784531,39.143406 88.140503,40.443104 
	C88.992683,39.551632 89.844856,38.660164 90.697037,37.768696 
	C89.604202,37.167553 88.511360,36.566406 87.072571,36.544003 
M110.692261,39.407955 
	C110.419968,38.155247 110.147675,36.902538 109.875381,35.649830 
	C109.236008,36.193905 108.596634,36.737984 107.957260,37.282055 
	C108.688683,38.083061 109.420105,38.884068 110.692261,39.407955 
z"/>
<path fill="#2E2B3E" opacity="1.000000" stroke="none" 
	d="
M50.000263,58.009903 
	C48.854179,56.139866 47.088600,54.061787 51.935337,54.232880 
	C54.431889,57.930294 56.972477,59.878716 61.442032,58.024487 
	C62.482311,58.013805 63.175682,58.010586 63.978027,58.373283 
	C66.699257,63.216286 69.311508,67.693375 71.932938,72.642548 
	C71.961754,73.743889 71.981392,74.373131 71.676102,75.266983 
	C65.268730,75.300858 59.186287,75.070145 53.103848,74.839424 
	C52.930534,75.058495 52.757221,75.277557 52.583908,75.496628 
	C55.056610,76.648430 57.529316,77.800232 59.995605,79.261703 
	C59.784691,80.359505 59.580185,81.147636 58.988815,81.892975 
	C56.693977,82.729340 54.786011,83.608498 52.467045,84.410675 
	C50.777927,85.407936 49.499805,86.482178 48.221687,87.556427 
	C49.163170,88.370789 50.104649,89.185150 51.258209,90.316223 
	C56.290108,91.489433 59.627529,89.790199 61.544121,85.030190 
	C64.483177,86.101074 67.052666,87.145973 69.670647,88.556450 
	C69.657906,92.977188 72.438538,91.055275 73.727066,90.448174 
	C75.954147,89.398842 79.146156,88.368721 77.000366,84.316177 
	C76.952271,83.557411 76.911812,83.124588 76.642029,82.458664 
	C74.983459,82.499725 73.554199,82.773888 71.827194,82.851532 
	C70.971710,81.640800 70.413979,80.626579 70.222130,79.410736 
	C74.076263,78.955177 77.564514,78.701263 82.044312,78.375168 
	C80.462265,80.129860 79.784882,80.881157 78.740463,82.039551 
	C83.590004,82.022957 88.164261,80.880005 90.952156,85.524605 
	C96.383545,94.573204 96.437050,111.059639 82.972450,116.073059 
	C73.611702,119.558441 64.395119,118.995262 55.339817,115.009575 
	C54.903152,114.817360 54.845173,113.764816 55.131901,112.993706 
	C57.746555,112.839218 59.840164,112.803932 62.371185,112.868614 
	C67.940460,112.957649 73.159355,113.537971 78.183922,112.798241 
	C85.860931,111.668015 89.577179,107.140305 89.749016,99.823906 
	C83.151825,99.823906 76.554771,99.823906 69.497627,99.746124 
	C63.025764,99.754143 57.013992,99.839951 50.545448,99.811028 
	C42.701759,99.802521 35.314846,99.908737 27.716026,100.291611 
	C27.574097,102.363663 27.644072,104.159073 27.815187,106.326645 
	C28.050074,107.454300 28.183817,108.209785 28.259655,109.289703 
	C28.221905,110.477608 28.242060,111.341072 28.291084,112.518204 
	C28.483315,113.214180 28.646677,113.596489 28.912247,114.287544 
	C29.303606,115.402817 29.592754,116.209328 29.865894,117.409515 
	C33.434387,125.594116 37.018887,133.385040 40.727997,141.502121 
	C46.501457,147.254669 52.150311,152.681076 57.988991,158.396057 
	C63.123642,161.315094 68.068466,163.945557 73.281830,166.770798 
	C77.364563,167.965683 81.178741,168.965805 85.358780,170.172836 
	C94.170708,170.304871 102.616776,170.229996 111.456596,170.134155 
	C114.571152,169.400620 117.291962,168.688049 120.379654,167.945129 
	C123.595253,166.687103 126.443962,165.459412 129.598877,164.167114 
	C130.934097,163.489380 131.963120,162.876251 132.992142,162.263123 
	C131.966599,163.851212 130.992447,165.475784 129.899063,167.015701 
	C129.041458,168.223557 128.036331,169.326706 127.094032,170.865265 
	C107.680153,179.606842 88.135101,179.170349 68.981071,170.969223 
	C37.686386,157.569824 20.130404,127.426773 23.764029,93.208496 
	C26.096144,91.210205 29.313833,89.710716 29.421806,88.013397 
	C29.802948,82.021980 32.862267,82.367622 37.402584,82.848167 
	C45.708729,83.727280 46.854530,82.498444 47.341194,75.048462 
	C48.856842,74.003227 50.038155,73.070488 51.264801,72.101952 
	C47.215485,67.968552 44.502575,67.766815 40.098198,70.983780 
	C35.919498,70.243416 32.328430,70.844437 29.011189,73.002037 
	C29.776125,71.112785 30.541059,69.223526 31.586124,67.145592 
	C34.584007,66.559883 37.301765,66.162857 39.909355,65.781921 
	C40.360619,63.930691 40.728149,62.422939 41.177845,60.578125 
	C43.450298,61.372826 45.394112,62.052601 47.869858,63.077148 
	C49.269798,63.284431 50.137802,63.146938 51.207619,63.073799 
	C51.702152,63.098507 51.994881,63.058861 52.287609,63.019218 
	C51.860767,62.676727 51.433922,62.334236 51.008087,61.746994 
	C51.009098,61.502239 51.011982,61.012741 51.232376,60.966263 
	C51.741451,60.622272 52.030125,60.324760 52.318798,60.027245 
	C51.884598,60.010506 51.450394,59.993767 50.959381,59.698471 
	C50.601803,58.949913 50.301033,58.479908 50.000263,58.009903 
M63.209808,67.748024 
	C61.236645,63.277145 58.368473,63.903427 55.056709,66.035645 
	C57.425018,71.730019 59.633259,72.310715 63.209808,67.748024 
z"/>
<path fill="#353043" opacity="1.000000" stroke="none" 
	d="
M28.727644,73.230591 
	C32.328430,70.844437 35.919498,70.243416 40.339226,71.204597 
	C42.942139,72.586693 44.974499,73.873825 47.006859,75.160965 
	C46.854530,82.498444 45.708729,83.727280 37.402584,82.848167 
	C32.862267,82.367622 29.802948,82.021980 29.421806,88.013397 
	C29.313833,89.710716 26.096144,91.210205 23.930391,92.821327 
	C25.185469,86.381203 26.814785,79.920166 28.727644,73.230591 
z"/>
<path fill="#383245" opacity="1.000000" stroke="none" 
	d="
M174.227585,106.803680 
	C174.027359,106.414772 173.990250,105.806480 174.151627,105.092735 
	C174.363632,105.519623 174.377167,106.051956 174.227585,106.803680 
z"/>
<path fill="#E4E9EA" opacity="1.000000" stroke="none" 
	d="
M71.923759,72.170456 
	C69.311508,67.693375 66.699257,63.216286 64.057800,58.041092 
	C63.972034,56.894489 63.915478,56.445995 63.858921,55.997505 
	C64.253532,54.500694 64.648140,53.003880 65.042747,51.507065 
	C65.937675,64.423531 73.968040,70.818954 84.699516,75.084877 
	C86.525360,75.810684 88.172592,76.985817 90.414742,78.358231 
	C92.411072,80.101616 93.894989,81.440140 96.044846,83.379349 
	C95.832565,80.266563 95.682762,78.069923 95.532959,75.873276 
	C93.629250,70.793152 91.725548,65.713028 89.503891,60.312798 
	C89.185936,59.992683 88.784012,59.823593 88.784012,59.823593 
	C83.181946,56.708851 77.579880,53.594112 72.138550,50.568741 
	C72.913200,50.474972 74.538704,50.278210 76.753548,50.427948 
	C79.637985,48.948162 81.450439,48.871246 83.685135,51.338497 
	C85.706215,53.569908 88.557510,55.049362 91.042717,56.860394 
	C91.246559,57.146622 91.450409,57.432846 92.014145,58.154968 
	C94.531433,62.467903 96.688820,66.344940 98.930244,70.372993 
	C99.779266,68.115936 100.674774,65.848061 101.420883,63.532059 
	C101.478889,63.352009 100.489983,62.834694 100.016632,62.224800 
	C100.033585,61.641399 100.021576,61.307323 100.009567,60.973248 
	C101.025223,60.990780 102.392548,61.443943 102.998917,60.954460 
	C106.665833,57.994339 110.158821,54.818752 114.173615,51.340004 
	C115.382385,50.293663 116.127502,49.622524 117.085587,49.105743 
	C117.536934,49.516373 117.775307,49.772640 118.113861,50.300938 
	C118.498032,50.367672 118.782021,50.162373 119.016632,49.955368 
	C118.967247,49.953659 118.917503,50.039066 119.334610,50.189835 
	C122.038017,50.340603 124.324333,50.340603 126.610641,50.340603 
	C126.724449,50.773911 126.838257,51.207218 126.952072,51.640530 
	C119.262802,52.896198 111.987808,54.862495 107.174553,61.465580 
	C102.505173,67.871300 101.670113,75.041908 101.892662,82.146614 
	C106.559746,79.285149 110.687103,76.239952 115.235054,74.080582 
	C123.064743,70.363060 129.082382,65.365662 131.098618,56.484020 
	C131.273758,55.712532 132.857635,55.260841 133.787155,54.660606 
	C133.272995,57.188805 132.758835,59.716999 131.878265,62.683922 
	C131.418121,63.410084 131.324371,63.697514 131.230606,63.984947 
	C128.796310,67.400650 126.362030,70.816360 123.560349,74.747574 
	C124.874580,75.076500 126.490013,75.480812 128.982422,75.915863 
	C132.907288,75.577614 135.955200,75.208633 139.003098,74.839661 
	C141.031799,74.648140 143.060486,74.456612 145.044754,74.930527 
	C143.003876,76.473358 141.007416,77.350746 138.646912,78.222992 
	C136.709229,78.580978 135.135620,78.944099 133.447372,79.333679 
	C133.707596,80.073296 133.959579,80.789528 133.835907,81.348503 
	C130.313293,80.437035 127.166344,79.682816 123.732040,78.690048 
	C121.088715,78.451485 118.732727,78.451485 115.738045,78.451485 
	C116.929787,80.073586 117.474937,80.815598 117.929558,81.434380 
	C115.257324,81.914886 112.885490,82.341377 110.196114,82.863037 
	C101.895088,88.861847 100.180763,100.121193 105.970856,108.623459 
	C111.438049,116.651611 122.237236,120.051178 133.711624,117.496681 
	C137.731644,116.601723 141.819275,116.010559 145.906128,115.637413 
	C142.957352,117.346046 139.978516,118.697929 136.656799,120.015152 
	C135.721390,120.268890 135.128860,120.557297 134.143921,120.855202 
	C130.980865,121.017036 128.210236,121.169365 125.164215,121.223190 
	C124.322411,121.270332 123.755974,121.415985 123.189529,121.561646 
	C123.461967,121.918907 123.734398,122.276176 124.203217,122.926529 
	C126.892929,124.518196 129.386246,125.816772 132.132233,127.325867 
	C133.571060,128.358047 134.757217,129.179703 135.526703,130.030945 
	C129.528671,130.388123 125.156303,127.991753 121.393456,124.091644 
	C120.143387,122.795975 118.818169,121.477455 117.292191,120.560745 
	C112.158394,117.476662 106.918724,114.568817 102.036789,111.775078 
	C102.743584,116.902412 106.120079,121.640785 111.085335,124.834984 
	C117.052383,128.673630 123.533958,131.712463 130.021362,135.372162 
	C131.478043,136.098923 132.716553,136.524948 133.931152,137.010773 
	C135.116791,137.485031 136.278000,138.020340 138.547394,139.005051 
	C131.908691,140.600204 127.847313,137.393524 123.246231,135.392700 
	C122.946022,135.580124 122.846085,135.915558 122.819901,136.621094 
	C124.744560,141.195572 126.721855,145.389236 123.672737,149.915802 
	C123.167328,149.224854 122.985168,148.600082 122.865204,147.573700 
	C122.058060,140.839615 120.037674,135.102020 114.759933,130.977356 
	C109.887238,127.169243 105.058266,123.305168 100.195320,119.454094 
	C100.328964,120.470192 100.499680,122.003838 100.736397,123.527222 
	C101.762222,130.128738 106.451836,134.072144 111.175285,138.209900 
	C111.092033,138.655167 111.067253,138.834793 110.648712,139.067886 
	C109.941978,140.742630 109.629005,142.363922 109.298660,144.339813 
	C109.195854,145.157013 109.110420,145.619614 108.617218,146.056335 
	C107.796463,145.270187 107.049866,144.520798 107.024544,143.747803 
	C106.857613,138.652420 104.102333,135.069061 100.788826,131.768051 
	C100.315041,131.895279 99.841255,132.022507 99.367470,132.149750 
	C100.389816,137.763596 101.412163,143.377441 102.363937,149.357941 
	C100.748787,149.724579 99.204201,149.724579 97.531036,149.724579 
	C96.248734,150.372238 94.619446,151.195160 92.987930,151.647110 
	C96.573273,145.550278 98.313934,139.455795 96.921738,132.736053 
	C96.406776,132.553879 95.891815,132.371689 95.376862,132.189514 
	C93.262466,137.774658 91.148071,143.359802 88.929626,148.583588 
	C88.825584,144.961792 88.825584,141.701340 88.825584,138.388962 
	C87.151566,138.596344 85.581398,138.790848 84.076744,138.638550 
	C85.541481,137.473907 86.906235,136.588913 88.345978,135.850021 
	C94.179276,132.856308 97.463036,126.326591 96.745575,121.276299 
	C94.473953,123.036118 91.285439,125.357101 88.266968,127.881424 
	C84.260109,131.232330 80.385956,134.741928 76.007607,138.114059 
	C75.262413,137.997803 74.964394,137.950836 74.710464,137.541992 
	C73.316055,137.227661 71.818558,137.034821 70.450790,137.370514 
	C67.147423,138.181305 63.904644,139.238937 60.637432,140.197037 
	C60.458569,139.654724 60.279705,139.112411 60.100842,138.570099 
	C61.750904,137.755737 63.400967,136.941376 65.423462,136.110687 
	C77.124374,130.787155 89.561562,126.848457 95.155647,112.653709 
	C88.670959,116.521973 82.794746,119.286804 77.826256,123.203194 
	C73.036102,126.979019 68.335632,130.246246 62.168324,130.569733 
	C62.519627,129.700302 62.847679,129.092484 63.523735,128.416290 
	C64.926598,127.935341 65.981468,127.522789 67.380188,127.013611 
	C69.115013,126.052818 70.505989,125.188644 72.185989,124.182228 
	C73.386108,123.337151 74.297211,122.634308 75.208313,121.931473 
	C74.991058,121.630379 74.773811,121.329285 74.556557,121.028191 
	C72.697746,121.159622 70.838943,121.291054 68.556625,121.322990 
	C62.494492,120.800301 57.008877,119.921677 52.758492,116.879013 
	C53.559376,115.137711 54.059990,114.049255 54.577583,113.038498 
	C54.594559,113.116196 54.610847,113.112907 54.610847,113.112907 
	C54.845173,113.764816 54.903152,114.817360 55.339817,115.009575 
	C64.395119,118.995262 73.611702,119.558441 82.972450,116.073059 
	C96.437050,111.059639 96.383545,94.573204 90.952156,85.524605 
	C88.164261,80.880005 83.590004,82.022957 78.740463,82.039551 
	C79.784882,80.881157 80.462265,80.129860 82.044312,78.375168 
	C77.564514,78.701263 74.076263,78.955177 69.850601,79.443970 
	C66.968369,80.166382 64.728714,82.064697 62.854542,78.976357 
	C62.595024,78.548714 60.986195,78.939911 60.002018,78.952034 
	C57.529316,77.800232 55.056610,76.648430 52.583908,75.496628 
	C52.757221,75.277557 52.930534,75.058495 53.103848,74.839424 
	C59.186287,75.070145 65.268730,75.300858 71.995636,75.306717 
	C73.328026,74.977509 74.015953,74.873154 75.570755,74.637314 
	C73.854019,73.476097 72.888893,72.823280 71.923759,72.170456 
M124.396957,74.159866 
	C123.916992,74.117683 123.437027,74.075508 122.957062,74.033325 
	C123.300484,74.297783 123.643906,74.562233 124.396957,74.159866 
M94.004509,112.531662 
	C94.235275,112.611931 94.466034,112.692200 94.696800,112.772469 
	C94.622841,112.540695 94.548889,112.308929 94.004509,112.531662 
z"/>
<path fill="#2E2B3E" opacity="1.000000" stroke="none" 
	d="
M139.010956,78.228134 
	C141.007416,77.350746 143.003876,76.473358 145.219818,75.304031 
	C146.190659,74.961479 146.941986,74.910881 148.443542,74.843536 
	C152.911575,75.720566 155.216141,73.617592 157.283524,71.011696 
	C158.500107,71.908005 159.817474,72.700684 160.890656,73.744446 
	C161.425308,74.264450 161.286758,75.649727 161.836044,75.955887 
	C171.519943,81.353531 168.113754,90.782257 168.529724,99.338608 
	C158.373138,99.856819 148.683334,99.916885 138.530426,99.905396 
	C128.137909,99.833855 118.208519,99.833855 107.943718,99.833855 
	C108.670021,103.912598 108.771782,106.114471 114.042206,105.169746 
	C121.480545,103.836411 129.303223,104.647240 137.332672,104.648109 
	C138.469223,104.839699 139.234680,104.924591 140.002777,105.378731 
	C140.003571,106.486504 140.001755,107.225014 139.539764,108.056145 
	C132.652634,108.233734 126.225685,108.318710 119.513153,108.293900 
	C117.462990,108.356003 115.698410,108.527893 113.905029,109.099411 
	C116.015762,110.666237 118.112740,112.737839 120.302338,112.840866 
	C128.851303,113.243126 137.429581,113.022346 145.989120,113.408401 
	C145.946198,114.282623 145.911118,114.781647 145.876038,115.280670 
	C141.819275,116.010559 137.731644,116.601723 133.711624,117.496681 
	C122.237236,120.051178 111.438049,116.651611 105.970856,108.623459 
	C100.180763,100.121193 101.895088,88.861847 110.558403,83.036697 
	C113.795654,83.744987 116.353065,84.374809 118.989532,85.360580 
	C120.420525,90.088364 123.585632,91.204002 129.280838,90.734100 
	C127.194626,87.276115 125.599182,84.631599 124.004227,81.604767 
	C124.009605,80.457832 124.014496,79.693214 124.019386,78.928604 
	C127.166344,79.682816 130.313293,80.437035 133.979141,81.566696 
	C135.300964,82.619728 136.103882,83.297295 136.883881,84.355919 
	C137.627197,89.899071 141.591751,90.428093 145.940704,91.067482 
	C145.940704,89.548279 145.940704,88.283707 146.167160,86.766068 
	C147.845688,84.423019 149.297775,82.333023 151.639481,78.962601 
	C147.742432,80.342995 145.208481,81.240562 142.304321,82.086563 
	C140.942123,81.965767 139.950119,81.896545 138.973114,81.467636 
	C138.995728,80.148018 139.003342,79.188080 139.010956,78.228134 
z"/>
<path fill="#383245" opacity="1.000000" stroke="none" 
	d="
M133.827744,54.364174 
	C132.857635,55.260841 131.273758,55.712532 131.098618,56.484020 
	C129.082382,65.365662 123.064743,70.363060 115.235054,74.080582 
	C110.687103,76.239952 106.559746,79.285149 101.892662,82.146614 
	C101.670113,75.041908 102.505173,67.871300 107.174553,61.465580 
	C111.987808,54.862495 119.262802,52.896198 126.952072,51.640530 
	C126.838257,51.207218 126.724449,50.773911 126.610641,50.340603 
	C124.324333,50.340603 122.038017,50.340603 119.259377,49.803017 
	C119.570335,46.842670 120.373627,44.419910 121.176910,41.997147 
	C123.196335,42.006081 125.215767,42.015018 127.566528,42.428337 
	C127.002106,46.419598 129.325943,46.971691 132.004486,47.189426 
	C132.625763,49.482201 133.247040,51.774971 133.827744,54.364174 
M117.537704,63.617653 
	C118.767410,63.910229 120.783333,64.801834 121.093948,64.394150 
	C122.634499,62.372189 123.725143,60.007439 125.405434,56.989025 
	C120.417732,57.504921 118.212959,59.286400 117.537704,63.617653 
M109.723907,69.218483 
	C110.103523,72.202095 112.092560,71.800858 113.289238,70.332573 
	C114.429062,68.934059 114.628204,66.768867 115.240906,64.940742 
	C113.776245,65.015221 112.105278,64.687683 110.915710,65.298187 
	C110.047707,65.743660 109.813972,67.425018 109.723907,69.218483 
z"/>
<path fill="#8986C5" opacity="1.000000" stroke="none" 
	d="
M133.336487,162.150421 
	C131.963120,162.876251 130.934097,163.489380 129.281723,163.948700 
	C127.494705,161.012512 126.331055,158.230087 125.513763,155.568604 
	C132.898849,154.106750 129.514862,147.518738 131.820724,143.193573 
	C134.782806,143.193573 137.906921,143.193573 141.059052,143.562775 
	C142.692673,144.875107 144.220306,146.386444 145.923279,146.620193 
	C148.145248,146.925156 150.506119,146.218002 152.807236,145.946335 
	C150.290329,148.662170 147.773422,151.377991 144.779663,154.484314 
	C143.523499,155.578201 142.744186,156.281601 141.964890,156.985016 
	C139.203537,158.669250 136.442184,160.353485 133.336487,162.150421 
z"/>
<path fill="#AA9BE2" opacity="1.000000" stroke="none" 
	d="
M163.353088,127.949577 
	C163.015289,128.812317 162.677505,129.675049 162.110764,130.947083 
	C161.813980,131.904739 161.746155,132.453094 161.678329,133.001450 
	C161.342056,133.551102 161.005783,134.100754 160.001282,134.819336 
	C157.963425,134.549606 156.593781,134.110962 155.459442,133.336823 
	C155.263397,132.126541 155.014618,130.710312 154.362473,130.490448 
	C153.032623,130.042053 151.485489,130.238190 150.072647,129.800232 
	C150.420258,128.232925 150.723083,127.034187 151.432312,125.781342 
	C154.627228,125.407448 158.002579,126.564415 160.578278,122.043182 
	C157.498016,122.043182 155.557175,122.203773 153.655930,121.998184 
	C151.739777,121.790977 149.862961,121.220085 148.188293,120.753296 
	C148.689255,120.542023 148.867233,120.307404 149.270767,119.828339 
	C152.559586,118.784393 155.478668,117.707832 158.491867,117.091148 
	C160.895859,116.599144 163.743073,117.043808 163.165970,112.879852 
	C164.279724,111.451309 165.175156,110.269218 166.412506,109.077202 
	C167.437775,109.036903 168.121140,109.006531 168.804520,108.976166 
	C167.365387,114.879082 165.926270,120.782013 164.010345,126.945038 
	C163.195511,127.385910 163.135361,127.634056 163.353088,127.949577 
z"/>
<path fill="#9A8FD4" opacity="1.000000" stroke="none" 
	d="
M155.224152,133.672333 
	C156.593781,134.110962 157.963425,134.549606 159.763687,135.037018 
	C157.924850,138.581757 155.655365,142.077728 153.096558,145.760010 
	C150.506119,146.218002 148.145248,146.925156 145.923279,146.620193 
	C144.220306,146.386444 142.692673,144.875107 141.362076,143.376724 
	C145.781021,139.703796 143.374603,136.900131 141.667618,134.108688 
	C146.486038,133.979370 150.855103,133.825851 155.224152,133.672333 
z"/>
<path fill="#BDACE8" opacity="1.000000" stroke="none" 
	d="
M168.926117,108.608063 
	C168.121140,109.006531 167.437775,109.036903 166.060684,109.052277 
	C164.241348,108.813202 163.115723,108.589127 162.365967,108.268204 
	C163.791153,107.511162 164.840469,106.850960 165.889771,106.190758 
	C165.747223,105.796997 165.604675,105.403236 165.462128,105.009476 
	C156.974808,105.009476 148.487473,105.009476 140.000153,105.009476 
	C139.234680,104.924591 138.469223,104.839699 137.422211,104.347794 
	C137.758301,102.619499 138.375931,101.298225 138.993546,99.976944 
	C148.683334,99.916885 158.373138,99.856819 168.531464,99.786728 
	C169.015900,102.597794 169.031799,105.418877 168.926117,108.608063 
z"/>
<path fill="#383245" opacity="1.000000" stroke="none" 
	d="
M91.112778,56.490585 
	C88.557510,55.049362 85.706215,53.569908 83.685135,51.338497 
	C81.450439,48.871246 79.637985,48.948162 77.141922,50.484341 
	C77.259674,49.231098 77.578392,48.267956 78.443359,46.987377 
	C79.650719,46.420753 80.311836,46.171570 80.972946,45.922386 
	C82.737953,46.285179 84.502968,46.647972 86.838425,47.282375 
	C88.940239,48.399525 90.471603,49.245060 92.002968,50.090599 
	C91.729591,52.100658 91.456215,54.110722 91.112778,56.490585 
z"/>
<path fill="#E0E3E5" opacity="1.000000" stroke="none" 
	d="
M100.106171,60.579819 
	C100.021576,61.307323 100.033585,61.641399 99.762695,62.538734 
	C98.680702,61.068493 97.881607,59.035000 97.082520,57.001507 
	C97.379005,53.051651 97.675507,49.101795 97.972000,45.151939 
	C98.715591,45.169914 99.459190,45.187885 100.202782,45.205856 
	C100.202782,50.199371 100.202782,55.192883 100.106171,60.579819 
z"/>
<path fill="#E0E3E5" opacity="1.000000" stroke="none" 
	d="
M61.095116,58.031944 
	C56.972477,59.878716 54.431889,57.930294 52.276360,54.229095 
	C51.411880,51.720711 52.279358,50.204796 54.572712,51.126385 
	C56.912415,52.066597 58.901249,53.879932 61.117741,55.987984 
	C61.159561,57.120625 61.127338,57.576286 61.095116,58.031944 
z"/>
<path fill="#E4E9EA" opacity="1.000000" stroke="none" 
	d="
M143.775299,51.043530 
	C147.828293,53.311035 144.602173,55.489372 143.434433,56.407612 
	C141.931961,57.589058 139.409348,57.473160 137.326157,57.916084 
	C137.697800,56.185555 137.567856,54.019547 138.584274,52.848839 
	C139.570679,51.712700 141.733994,51.598354 143.775299,51.043530 
z"/>
<path fill="#E0E3E5" opacity="1.000000" stroke="none" 
	d="
M157.203186,70.686783 
	C155.216141,73.617592 152.911575,75.720566 148.816940,74.794495 
	C145.992508,71.632759 147.411957,69.861809 151.154724,68.557953 
	C152.824707,68.532074 153.909256,68.649597 154.993790,68.767128 
	C155.703476,69.298706 156.413177,69.830284 157.203186,70.686783 
z"/>
<path fill="#E0E3E5" opacity="1.000000" stroke="none" 
	d="
M121.078339,41.641186 
	C120.373627,44.419910 119.570335,46.842670 118.842270,49.652252 
	C118.917503,50.039066 118.967247,49.953659 118.746239,49.865688 
	C118.354713,49.861446 118.184196,49.945179 118.013680,50.028908 
	C117.775307,49.772640 117.536934,49.516373 117.183914,48.782997 
	C116.641220,46.870026 116.213181,45.434170 115.785133,43.998310 
	C116.091515,41.382286 116.397888,38.766262 116.704269,36.150238 
	C117.285042,36.064262 117.865822,35.978291 118.446602,35.892319 
	C119.290985,37.689953 120.135376,39.487587 121.078339,41.641186 
z"/>
<path fill="#E0E3E5" opacity="1.000000" stroke="none" 
	d="
M134.995789,70.148544 
	C135.260788,68.589912 135.049286,66.083359 135.886276,65.662643 
	C137.854858,64.673096 140.324127,64.679588 142.590790,64.283058 
	C142.880295,64.827675 143.169800,65.372284 143.459320,65.916901 
	C142.112137,67.338081 140.764969,68.759270 138.801025,70.334000 
	C137.121445,70.374542 136.058624,70.261543 134.995789,70.148544 
z"/>
<path fill="#383245" opacity="1.000000" stroke="none" 
	d="
M96.720192,57.018799 
	C97.881607,59.035000 98.680702,61.068493 99.733734,62.788059 
	C100.489983,62.834694 101.478889,63.352009 101.420883,63.532059 
	C100.674774,65.848061 99.779266,68.115936 98.930244,70.372993 
	C96.688820,66.344940 94.531433,62.467903 92.253036,58.274517 
	C93.540642,57.650814 94.949249,57.343452 96.720192,57.018799 
z"/>
<path fill="#E0E3E5" opacity="1.000000" stroke="none" 
	d="
M81.119919,45.556297 
	C80.311836,46.171570 79.650719,46.420753 78.720917,46.718407 
	C75.835625,43.133507 76.303108,39.803501 79.538109,36.431847 
	C82.577141,39.007236 82.628082,41.946060 81.119919,45.556297 
z"/>
<path fill="#E4E9EA" opacity="1.000000" stroke="none" 
	d="
M96.599533,34.844620 
	C97.900406,34.350498 99.634293,33.701294 99.914940,34.093082 
	C101.923660,36.897293 102.540382,39.814629 99.197754,42.483749 
	C95.574982,41.043446 95.482628,38.305561 96.599533,34.844620 
z"/>
<path fill="#E0E3E5" opacity="1.000000" stroke="none" 
	d="
M79.887749,64.967834 
	C74.195694,65.535233 73.752296,61.531025 72.774582,56.281071 
	C75.464951,57.779640 77.212593,58.753098 79.290733,60.355049 
	C79.710060,62.311638 79.798904,63.639736 79.887749,64.967834 
z"/>
<path fill="#383245" opacity="1.000000" stroke="none" 
	d="
M134.862839,70.458023 
	C136.058624,70.261543 137.121445,70.374542 138.508636,70.490723 
	C138.886597,71.652519 138.940201,72.811134 138.998444,74.404701 
	C135.955200,75.208633 132.907288,75.577614 129.428055,75.869034 
	C130.907776,74.116814 132.818817,72.442146 134.862839,70.458023 
z"/>
<path fill="#E0E3E5" opacity="1.000000" stroke="none" 
	d="
M87.997414,72.177330 
	C85.490288,70.320084 81.743187,69.390846 82.945023,64.548347 
	C84.643570,64.495148 86.021309,64.891472 87.399040,65.287788 
	C88.008087,67.280289 88.617142,69.272789 88.932220,71.681038 
	C88.424637,72.123627 88.211029,72.150475 87.997414,72.177330 
z"/>
<path fill="#383245" opacity="1.000000" stroke="none" 
	d="
M87.718956,64.959900 
	C86.021309,64.891472 84.643570,64.495148 82.966049,64.202347 
	C81.966438,64.449745 81.266609,64.593628 80.227264,64.852669 
	C79.798904,63.639736 79.710060,62.311638 79.506180,60.597534 
	C82.240494,60.131187 85.089851,60.050842 88.361603,59.897041 
	C88.784012,59.823593 89.185936,59.992683 89.189415,60.110100 
	C88.808220,61.695675 88.423546,63.163841 87.718956,64.959900 
z"/>
<path fill="#E0E3E5" opacity="1.000000" stroke="none" 
	d="
M111.069862,47.001366 
	C109.174164,47.925419 107.278465,48.849464 105.382767,49.773514 
	C105.019272,48.795444 104.120132,47.628075 104.387054,46.872807 
	C105.420197,43.949478 107.644562,43.378738 110.704254,45.123486 
	C111.026314,46.109058 111.048088,46.555210 111.069862,47.001366 
z"/>
<path fill="#2E2B3E" opacity="1.000000" stroke="none" 
	d="
M155.015076,68.420547 
	C153.909256,68.649597 152.824707,68.532074 151.417664,68.349731 
	C150.776550,67.101265 150.457962,65.917610 150.084595,64.045700 
	C150.055435,62.923649 150.081055,62.489838 150.106689,62.056026 
	C154.496704,61.811947 156.349609,63.646164 155.015076,68.420547 
z"/>
<path fill="#E0E3E5" opacity="1.000000" stroke="none" 
	d="
M92.312393,49.852760 
	C90.471603,49.245060 88.940239,48.399525 87.208656,47.276833 
	C88.370667,46.140907 89.732895,45.282139 91.095123,44.423363 
	C91.604027,46.153885 92.112923,47.884403 92.312393,49.852760 
z"/>
<path fill="#383245" opacity="1.000000" stroke="none" 
	d="
M111.410812,47.085541 
	C111.048088,46.555210 111.026314,46.109058 111.013840,45.327606 
	C112.375320,44.663513 113.727501,44.334721 115.432404,44.002121 
	C116.213181,45.434170 116.641220,46.870026 116.970940,48.628635 
	C116.127502,49.622524 115.382385,50.293663 114.347214,51.055420 
	C113.288696,49.820591 112.520233,48.495152 111.410812,47.085541 
z"/>
<path fill="#E4E9EA" opacity="1.000000" stroke="none" 
	d="
M132.309387,47.010643 
	C129.325943,46.971691 127.002106,46.419598 128.000870,42.436340 
	C133.525543,41.747753 134.313873,42.585278 132.309387,47.010643 
z"/>
<path fill="#E0E3E5" opacity="1.000000" stroke="none" 
	d="
M68.839157,46.968845 
	C67.078323,46.033989 65.702225,44.942688 64.326118,43.851387 
	C65.488869,43.242596 66.794678,41.948959 67.786972,42.156227 
	C70.525009,42.728142 70.950188,44.570011 68.839157,46.968845 
z"/>
<path fill="#383245" opacity="1.000000" stroke="none" 
	d="
M95.143059,75.951347 
	C95.682762,78.069923 95.832565,80.266563 96.044846,83.379349 
	C93.894989,81.440140 92.411072,80.101616 90.726433,78.478485 
	C91.934868,77.472397 93.344009,76.750908 95.143059,75.951347 
z"/>
<path fill="#383245" opacity="1.000000" stroke="none" 
	d="
M87.245544,36.254631 
	C88.511360,36.566406 89.604202,37.167553 90.697037,37.768692 
	C89.844856,38.660164 88.992683,39.551632 88.140503,40.443108 
	C87.784531,39.143406 87.428551,37.843704 87.245544,36.254631 
z"/>
<path fill="#383245" opacity="1.000000" stroke="none" 
	d="
M150.061707,61.707088 
	C150.081055,62.489838 150.055435,62.923649 150.018799,63.683895 
	C148.572525,63.531918 147.137253,63.053501 144.822296,62.281864 
	C145.920944,60.991760 146.901947,59.839787 147.882965,58.687817 
	C148.594208,59.577930 149.305450,60.468040 150.061707,61.707088 
z"/>
<path fill="#383245" opacity="1.000000" stroke="none" 
	d="
M110.421890,39.546516 
	C109.420105,38.884068 108.688683,38.083061 107.957260,37.282059 
	C108.596634,36.737984 109.236008,36.193905 109.875381,35.649830 
	C110.147675,36.902538 110.419968,38.155247 110.421890,39.546516 
z"/>
<path fill="#383245" opacity="1.000000" stroke="none" 
	d="
M51.005810,63.009445 
	C50.137802,63.146938 49.269798,63.284431 48.183289,63.226166 
	C48.640793,61.599930 49.316795,60.169453 49.996529,58.374439 
	C50.301033,58.479908 50.601803,58.949913 50.956799,59.957535 
	C51.011341,60.667679 51.011662,60.840210 51.011982,61.012741 
	C51.011982,61.012741 51.009098,61.502239 51.007061,62.001465 
	C51.005287,62.670273 51.005547,62.839859 51.005810,63.009445 
z"/>
<path fill="#2E2B3E" opacity="1.000000" stroke="none" 
	d="
M142.263977,157.100494 
	C142.744186,156.281601 143.523499,155.578201 144.594467,154.744812 
	C144.111786,155.481888 143.337433,156.348923 142.263977,157.100494 
z"/>
<path fill="#383245" opacity="1.000000" stroke="none" 
	d="
M88.087234,72.437965 
	C88.211029,72.150475 88.424637,72.123627 88.960815,72.080917 
	C89.572655,72.516640 89.861938,72.968231 90.151222,73.419830 
	C89.493164,73.179420 88.835114,72.939011 88.087234,72.437965 
z"/>
<path fill="#383245" opacity="1.000000" stroke="none" 
	d="
M61.442032,58.024487 
	C61.127338,57.576286 61.159561,57.120625 61.255913,56.328491 
	C61.954536,55.994156 62.589031,55.996296 63.541222,55.997971 
	C63.915478,56.445995 63.972034,56.894489 63.948818,57.675171 
	C63.175682,58.010586 62.482311,58.013805 61.442032,58.024487 
z"/>
<path fill="#383245" opacity="1.000000" stroke="none" 
	d="
M161.857391,132.921509 
	C161.746155,132.453094 161.813980,131.904739 162.183563,131.293182 
	C162.335663,131.767181 162.186050,132.304382 161.857391,132.921509 
z"/>
<path fill="#383245" opacity="1.000000" stroke="none" 
	d="
M131.381805,63.849960 
	C131.324371,63.697514 131.418121,63.410084 131.763733,63.094467 
	C131.885544,63.305428 131.724686,63.521660 131.381805,63.849960 
z"/>
<path fill="#383245" opacity="1.000000" stroke="none" 
	d="
M163.475128,127.843521 
	C163.135361,127.634056 163.195511,127.385910 163.753006,127.209152 
	C163.873657,127.406776 163.748566,127.581543 163.475128,127.843521 
z"/>
<path fill="#86D3E8" opacity="1.000000" stroke="none" 
	d="
M63.175735,128.484665 
	C62.847679,129.092484 62.519627,129.700302 61.689720,130.630890 
	C54.564171,130.953644 47.940472,130.953644 40.426071,130.953644 
	C41.527985,132.316788 42.255768,133.217102 42.988289,134.524811 
	C42.196476,137.013458 41.399933,139.094711 40.603390,141.175964 
	C37.018887,133.385040 33.434387,125.594116 30.251492,117.404205 
	C31.521477,116.536026 32.389858,116.066841 33.515884,115.668045 
	C33.941330,115.798035 34.109119,115.857635 34.546047,116.219994 
	C38.863556,116.706055 42.911926,116.889359 47.125786,117.343506 
	C48.513405,119.039978 49.735527,120.465614 50.497929,121.918442 
	C46.058506,121.945633 42.078804,121.945633 38.099106,121.945633 
	C38.066570,122.624916 38.034031,123.304207 38.001495,123.983490 
	C41.840569,127.611511 46.657211,124.733582 51.413879,125.102936 
	C54.559658,125.454124 57.291393,125.712715 60.160965,126.288551 
	C61.257778,127.232086 62.216755,127.858376 63.175735,128.484665 
z"/>
<path fill="#79CAE3" opacity="1.000000" stroke="none" 
	d="
M40.727997,141.502121 
	C41.399933,139.094711 42.196476,137.013458 43.453632,134.489746 
	C48.542522,134.064682 53.170799,134.082092 57.815071,134.447205 
	C56.935188,136.493713 54.882309,139.093216 55.367699,139.716721 
	C56.650402,141.364441 59.033009,142.155884 60.968269,143.656342 
	C60.899258,145.948959 60.297142,148.063095 60.890179,149.759415 
	C62.238598,153.616440 60.560028,155.971573 57.799160,158.107483 
	C52.150311,152.681076 46.501457,147.254669 40.727997,141.502121 
z"/>
<path fill="#90C4DD" opacity="1.000000" stroke="none" 
	d="
M69.957718,99.823906 
	C76.554771,99.823906 83.151825,99.823906 89.749016,99.823906 
	C89.577179,107.140305 85.860931,111.668015 78.183922,112.798241 
	C73.159355,113.537971 67.940460,112.957649 62.362823,112.542511 
	C61.589207,110.867798 61.261379,109.619156 61.396187,108.263229 
	C69.167999,107.637276 76.823395,109.891556 83.790329,106.631783 
	C83.749947,105.947495 83.709564,105.263214 83.669182,104.578926 
	C79.101662,104.578926 74.534149,104.578926 69.990753,104.182732 
	C69.995819,102.465660 69.976768,101.144783 69.957718,99.823906 
z"/>
<path fill="#54739F" opacity="1.000000" stroke="none" 
	d="
M111.062851,170.155136 
	C102.616776,170.229996 94.170708,170.304871 85.432343,169.806702 
	C85.743942,166.527924 86.347824,163.822189 87.226685,161.039246 
	C87.687927,160.922913 87.874184,160.883789 88.273476,160.771973 
	C88.745270,160.536026 88.962204,160.328934 89.525757,160.050720 
	C93.429176,159.151230 97.085060,157.567780 99.407104,161.961716 
	C101.043213,161.317490 102.535294,160.729965 104.027596,160.521484 
	C105.240410,162.876740 106.339111,164.936417 107.705254,166.800064 
	C108.629707,168.061172 109.930428,169.046478 111.062851,170.155136 
z"/>
<path fill="#6BB9D9" opacity="1.000000" stroke="none" 
	d="
M57.988987,158.396057 
	C60.560028,155.971573 62.238598,153.616440 60.890179,149.759415 
	C60.297142,148.063095 60.899258,145.948959 61.384506,143.598419 
	C63.954365,143.421799 66.098450,143.671280 68.138245,144.323883 
	C67.740822,146.682571 67.314262,148.629318 67.184341,150.595688 
	C66.963097,153.944397 68.311905,156.029938 72.088997,156.229752 
	C72.445877,159.920364 72.729584,163.248199 73.013283,166.576035 
	C68.068466,163.945557 63.123642,161.315094 57.988987,158.396057 
z"/>
<path fill="#ADEEF6" opacity="1.000000" stroke="none" 
	d="
M60.933552,108.370499 
	C61.261379,109.619156 61.589207,110.867798 61.925404,112.442551 
	C59.840164,112.803932 57.746555,112.839218 55.131897,112.993706 
	C54.610847,113.112907 54.594559,113.116196 54.075577,113.006653 
	C48.064201,112.976501 42.562378,112.904320 37.086239,113.245018 
	C35.766552,113.327126 34.531960,114.776855 33.258232,115.597656 
	C32.389858,116.066841 31.521477,116.536026 30.267500,117.010529 
	C29.592754,116.209328 29.303606,115.402817 28.952225,113.959991 
	C28.680735,112.950630 28.471476,112.577583 28.262215,112.204536 
	C28.242060,111.341072 28.221905,110.477608 28.592205,109.255646 
	C29.718462,108.461349 30.454264,108.025551 31.418655,107.657906 
	C31.647247,107.726059 31.986597,108.060799 32.055561,108.220078 
	C32.422501,108.375786 32.720478,108.372215 33.482620,108.310852 
	C42.942379,108.292206 51.937965,108.331352 60.933552,108.370499 
z"/>
<path fill="#5A90BB" opacity="1.000000" stroke="none" 
	d="
M73.281830,166.770798 
	C72.729584,163.248199 72.445877,159.920364 72.248993,155.964615 
	C72.634209,154.791534 72.932594,154.246368 73.593918,153.756287 
	C74.446091,153.819260 74.935341,153.827133 75.751923,153.840408 
	C80.882774,152.239319 82.332603,155.906311 84.157333,159.296585 
	C84.770523,160.015579 85.384026,160.421280 86.234116,160.905792 
	C86.470711,160.984589 86.951706,161.116455 86.951706,161.116455 
	C86.347824,163.822189 85.743942,166.527924 85.066490,169.599792 
	C81.178741,168.965805 77.364563,167.965683 73.281830,166.770798 
z"/>
<path fill="#6273A2" opacity="1.000000" stroke="none" 
	d="
M111.456596,170.134155 
	C109.930428,169.046478 108.629707,168.061172 107.705254,166.800064 
	C106.339111,164.936417 105.240410,162.876740 104.408188,160.563934 
	C107.279938,159.912262 109.771339,159.597183 112.542343,159.085815 
	C115.366470,157.139236 113.694336,151.393036 119.021042,152.679001 
	C115.787773,158.266006 117.780350,163.128983 120.012772,167.975464 
	C117.291962,168.688049 114.571152,169.400620 111.456596,170.134155 
z"/>
<path fill="#C2FAFA" opacity="1.000000" stroke="none" 
	d="
M31.190063,107.589752 
	C30.454264,108.025551 29.718462,108.461349 28.650110,108.931206 
	C28.183817,108.209785 28.050074,107.454300 27.899918,105.909622 
	C27.898314,103.418602 27.913124,101.716782 27.927933,100.014961 
	C35.314846,99.908737 42.701759,99.802521 50.548862,100.193436 
	C51.004688,101.963875 51.000324,103.237190 50.536022,104.605492 
	C44.766777,104.721832 39.457478,104.755768 34.148163,104.757889 
	C32.223953,104.758659 30.225163,104.605301 31.190063,107.589752 
z"/>
<path fill="#747CB0" opacity="1.000000" stroke="none" 
	d="
M120.379654,167.945129 
	C117.780350,163.128983 115.787773,158.266006 119.398499,152.610565 
	C121.232071,151.668762 122.653885,151.162628 124.334213,150.920166 
	C124.784279,152.605103 124.975845,154.026398 125.167412,155.447678 
	C126.331055,158.230087 127.494705,161.012512 128.975525,164.013321 
	C126.443962,165.459412 123.595253,166.687103 120.379654,167.945129 
z"/>
<path fill="#ADEEF6" opacity="1.000000" stroke="none" 
	d="
M50.995960,104.510506 
	C51.000324,103.237190 51.004688,101.963875 51.005638,100.308151 
	C57.013992,99.839951 63.025764,99.754143 69.497635,99.746124 
	C69.976768,101.144783 69.995819,102.465660 69.527832,104.248108 
	C63.025845,104.643288 57.010902,104.576897 50.995960,104.510506 
z"/>
<path fill="#353043" opacity="1.000000" stroke="none" 
	d="
M59.995605,79.261703 
	C60.986195,78.939911 62.595024,78.548714 62.854542,78.976357 
	C64.728714,82.064697 66.968369,80.166382 69.484718,79.645599 
	C70.413979,80.626579 70.971710,81.640800 71.687073,83.143829 
	C71.103859,85.152054 70.363007,86.671463 69.622154,88.190872 
	C67.052666,87.145973 64.483177,86.101074 61.345375,84.763092 
	C59.800316,83.907074 57.646763,83.994873 59.375679,81.935760 
	C59.580185,81.147636 59.784691,80.359505 59.995605,79.261703 
z"/>
<path fill="#E0E3E5" opacity="1.000000" stroke="none" 
	d="
M58.988811,81.892975 
	C57.646763,83.994873 59.800316,83.907074 60.975807,84.737106 
	C59.627529,89.790199 56.290108,91.489433 51.452057,90.006149 
	C51.915230,87.748802 52.396633,86.118225 52.878044,84.487656 
	C54.786011,83.608498 56.693977,82.729340 58.988811,81.892975 
z"/>
<path fill="#E0E3E5" opacity="1.000000" stroke="none" 
	d="
M69.670647,88.556450 
	C70.363007,86.671463 71.103859,85.152054 71.984833,83.340347 
	C73.554199,82.773888 74.983459,82.499725 76.382965,82.611435 
	C76.009491,83.487549 75.665764,83.977783 75.109398,84.738281 
	C75.006744,85.358139 75.116730,85.707733 75.226715,86.057327 
	C75.524269,85.746429 75.821823,85.435532 76.374283,85.064316 
	C76.755455,84.883385 76.881729,84.762764 77.008011,84.642136 
	C79.146156,88.368721 75.954147,89.398842 73.727066,90.448174 
	C72.438538,91.055275 69.657906,92.977188 69.670647,88.556450 
z"/>
<path fill="#E4E9EA" opacity="1.000000" stroke="none" 
	d="
M47.341194,75.048462 
	C44.974499,73.873825 42.942139,72.586693 40.668747,71.078735 
	C44.502575,67.766815 47.215485,67.968552 51.264801,72.101952 
	C50.038155,73.070488 48.856842,74.003227 47.341194,75.048462 
z"/>
<path fill="#E0E3E5" opacity="1.000000" stroke="none" 
	d="
M63.318649,68.127335 
	C59.633259,72.310715 57.425018,71.730019 55.056709,66.035645 
	C58.368473,63.903427 61.236645,63.277145 63.318649,68.127335 
z"/>
<path fill="#353043" opacity="1.000000" stroke="none" 
	d="
M52.467041,84.410667 
	C52.396633,86.118225 51.915230,87.748802 51.239975,89.689453 
	C50.104649,89.185150 49.163170,88.370789 48.221687,87.556427 
	C49.499805,86.482178 50.777927,85.407936 52.467041,84.410667 
z"/>
<path fill="#353043" opacity="1.000000" stroke="none" 
	d="
M27.716028,100.291611 
	C27.913124,101.716782 27.898314,103.418602 27.798775,105.537445 
	C27.644072,104.159073 27.574097,102.363663 27.716028,100.291611 
z"/>
<path fill="#353043" opacity="1.000000" stroke="none" 
	d="
M71.932938,72.642548 
	C72.888893,72.823280 73.854019,73.476097 75.570755,74.637314 
	C74.015953,74.873154 73.328026,74.977509 72.320572,75.042114 
	C71.981392,74.373131 71.961754,73.743889 71.932938,72.642548 
z"/>
<path fill="#353043" opacity="1.000000" stroke="none" 
	d="
M51.232376,60.966263 
	C51.011662,60.840210 51.011341,60.667679 51.013611,60.236092 
	C51.450394,59.993767 51.884598,60.010506 52.318798,60.027245 
	C52.030125,60.324760 51.741451,60.622272 51.232376,60.966263 
z"/>
<path fill="#353043" opacity="1.000000" stroke="none" 
	d="
M51.207619,63.073795 
	C51.005547,62.839859 51.005287,62.670273 51.006050,62.246216 
	C51.433922,62.334236 51.860767,62.676727 52.287609,63.019218 
	C51.994881,63.058861 51.702152,63.098507 51.207619,63.073795 
z"/>
<path fill="#353043" opacity="1.000000" stroke="none" 
	d="
M77.000366,84.316177 
	C76.881729,84.762764 76.755455,84.883385 76.176712,84.898026 
	C75.590164,84.684029 75.456100,84.576027 75.322037,84.468025 
	C75.665764,83.977783 76.009491,83.487549 76.612289,82.844543 
	C76.911812,83.124588 76.952271,83.557411 77.000366,84.316177 
z"/>
<path fill="#353043" opacity="1.000000" stroke="none" 
	d="
M28.291084,112.518204 
	C28.471476,112.577583 28.680735,112.950630 28.850016,113.651230 
	C28.646677,113.596489 28.483315,113.214180 28.291084,112.518204 
z"/>
<path fill="#383245" opacity="1.000000" stroke="none" 
	d="
M155.459442,133.336823 
	C150.855103,133.825851 146.486038,133.979370 141.202972,134.082611 
	C136.790207,134.387421 133.291489,134.742508 129.792755,135.097595 
	C123.533958,131.712463 117.052383,128.673630 111.085335,124.834984 
	C106.120079,121.640785 102.743584,116.902412 102.036789,111.775078 
	C106.918724,114.568817 112.158394,117.476662 117.292191,120.560745 
	C118.818169,121.477455 120.143387,122.795975 121.393456,124.091644 
	C125.156303,127.991753 129.528671,130.388123 135.947449,130.159607 
	C141.199203,130.228729 145.613525,130.198776 150.027863,130.168808 
	C151.485489,130.238190 153.032623,130.042053 154.362473,130.490448 
	C155.014618,130.710312 155.263397,132.126541 155.459442,133.336823 
z"/>
<path fill="#383245" opacity="1.000000" stroke="none" 
	d="
M57.799076,134.099503 
	C53.170799,134.082092 48.542522,134.064682 43.448898,134.082352 
	C42.255768,133.217102 41.527985,132.316788 40.426071,130.953644 
	C47.940472,130.953644 54.564171,130.953644 61.666473,130.892487 
	C68.335632,130.246246 73.036102,126.979019 77.826256,123.203194 
	C82.794746,119.286804 88.670959,116.521973 95.155647,112.653709 
	C89.561562,126.848457 77.124374,130.787155 65.146255,135.861542 
	C62.264111,135.119003 60.031593,134.609253 57.799076,134.099503 
z"/>
<path fill="#383245" opacity="1.000000" stroke="none" 
	d="
M147.968903,120.808540 
	C149.862961,121.220085 151.739777,121.790977 153.655930,121.998184 
	C155.557175,122.203773 157.498016,122.043182 160.578278,122.043182 
	C158.002579,126.564415 154.627228,125.407448 151.065155,125.609741 
	C144.154266,126.033287 138.016907,126.574318 131.879562,127.115356 
	C129.386246,125.816772 126.892929,124.518196 124.570297,122.608292 
	C124.973846,121.771873 125.206726,121.546791 125.439598,121.321701 
	C128.210236,121.169365 130.980865,121.017036 134.477493,120.850243 
	C135.802216,120.573792 136.400940,120.311798 136.999664,120.049812 
	C139.978516,118.697929 142.957352,117.346046 145.906128,115.637421 
	C145.911118,114.781647 145.946198,114.282623 146.454468,113.355957 
	C152.267654,112.994316 157.607651,113.060318 162.947647,113.126312 
	C163.743073,117.043808 160.895859,116.599144 158.491867,117.091148 
	C155.478668,117.707832 152.559586,118.784393 149.084717,119.933479 
	C148.332809,120.369545 148.132599,120.570892 147.968903,120.808540 
z"/>
<path fill="#40435E" opacity="1.000000" stroke="none" 
	d="
M112.262733,159.282089 
	C109.771339,159.597183 107.279938,159.912262 104.407959,160.184906 
	C102.535294,160.729965 101.043213,161.317490 99.407104,161.961716 
	C97.085060,157.567780 93.429176,159.151230 89.323715,160.146606 
	C88.478401,160.425598 88.254120,160.617218 88.060432,160.844650 
	C87.874184,160.883789 87.687927,160.922913 87.226685,161.039246 
	C86.951706,161.116455 86.470711,160.984589 86.261780,160.521378 
	C87.022736,157.366714 87.992622,154.675262 89.124809,152.233261 
	C90.521461,152.327835 91.755806,152.172958 92.990158,152.018066 
	C94.619446,151.195160 96.248734,150.372238 97.531036,149.724579 
	C99.204201,149.724579 100.748787,149.724579 102.664673,149.458344 
	C104.576767,150.399918 106.117561,151.607712 107.658363,152.815506 
	C108.113899,152.613007 108.569443,152.410507 109.024986,152.208008 
	C109.024986,150.166077 109.024986,148.124130 109.024986,146.082199 
	C109.110420,145.619614 109.195854,145.157013 109.611328,144.264526 
	C111.286209,143.233215 112.631050,142.631805 114.315659,142.030777 
	C115.108200,142.045288 115.560951,142.059433 116.013123,142.403351 
	C116.008003,143.172806 116.003479,143.612488 115.899071,144.344681 
	C114.232529,145.106705 112.665863,145.576233 111.368034,145.965179 
	C111.173897,148.201965 111.677460,150.803604 110.650070,152.449799 
	C108.646057,155.660873 109.697701,157.486755 112.262733,159.282089 
z"/>
<path fill="#3D384E" opacity="1.000000" stroke="none" 
	d="
M113.975883,142.030411 
	C112.631050,142.631805 111.286209,143.233215 109.628708,143.909912 
	C109.629005,142.363922 109.941978,140.742630 110.883377,139.048965 
	C111.822708,138.604004 112.133606,138.231415 112.444504,137.858841 
	C112.040924,137.887329 111.637337,137.915802 111.233757,137.944275 
	C106.451836,134.072144 101.762222,130.128738 100.736397,123.527222 
	C100.499680,122.003838 100.328964,120.470192 100.195320,119.454094 
	C105.058266,123.305168 109.887238,127.169243 114.759933,130.977356 
	C120.037674,135.102020 122.058060,140.839615 122.520630,147.548569 
	C120.075554,146.634094 118.037254,145.343140 115.998947,144.052170 
	C116.003479,143.612488 116.008003,143.172806 115.915855,142.113129 
	C115.436142,140.698929 115.053101,139.904739 114.670067,139.110550 
	C114.438667,139.165268 114.207275,139.219971 113.975883,139.274689 
	C113.975883,140.193253 113.975883,141.111832 113.975883,142.030411 
z"/>
<path fill="#3D384E" opacity="1.000000" stroke="none" 
	d="
M76.454773,138.183334 
	C80.385956,134.741928 84.260109,131.232330 88.266968,127.881424 
	C91.285439,125.357101 94.473953,123.036118 96.745575,121.276299 
	C97.463036,126.326591 94.179276,132.856308 88.345978,135.850021 
	C86.906235,136.588913 85.541481,137.473907 83.748627,138.648193 
	C82.948906,139.840424 82.025124,141.255066 82.214790,141.424698 
	C84.822716,143.756973 81.791214,143.868011 80.642700,144.957474 
	C78.607094,147.034988 76.896500,148.970779 75.123627,150.471771 
	C75.525833,146.085770 75.990303,142.134552 76.454773,138.183334 
z"/>
<path fill="#3D384E" opacity="1.000000" stroke="none" 
	d="
M130.021362,135.372162 
	C133.291489,134.742508 136.790207,134.387421 140.753601,134.058411 
	C143.374603,136.900131 145.781021,139.703796 141.334061,143.007523 
	C137.906921,143.193573 134.782806,143.193573 131.820724,143.193573 
	C129.514862,147.518738 132.898849,154.106750 125.513763,155.568604 
	C124.975845,154.026398 124.784279,152.605103 124.330444,150.749756 
	C124.068176,150.315689 123.995987,149.981979 123.995987,149.981979 
	C126.721855,145.389236 124.744560,141.195572 122.996445,136.444946 
	C123.099228,135.898712 123.446503,135.540726 123.446503,135.540726 
	C127.847313,137.393524 131.908691,140.600204 138.547394,139.005051 
	C136.278000,138.020340 135.116791,137.485031 133.931152,137.010773 
	C132.716553,136.524948 131.478043,136.098923 130.021362,135.372162 
z"/>
<path fill="#2E2B3E" opacity="1.000000" stroke="none" 
	d="
M33.515884,115.668037 
	C34.531960,114.776855 35.766552,113.327126 37.086239,113.245018 
	C42.562378,112.904320 48.064201,112.976501 54.058601,112.928955 
	C54.059990,114.049255 53.559376,115.137711 52.758492,116.879013 
	C57.008877,119.921677 62.494492,120.800301 68.675255,121.659348 
	C70.110580,122.838295 71.003769,123.581375 71.896957,124.324463 
	C70.505989,125.188644 69.115013,126.052818 67.033554,126.943359 
	C64.236427,126.636925 62.129780,126.304115 60.023132,125.971313 
	C57.291393,125.712715 54.559658,125.454124 51.412010,124.713013 
	C50.983284,123.450745 50.970470,122.670998 50.957653,121.891243 
	C49.735527,120.465614 48.513405,119.039978 46.800449,117.101814 
	C42.298714,116.365265 38.287807,116.141251 34.276905,115.917236 
	C34.109119,115.857635 33.941330,115.798035 33.515884,115.668037 
z"/>
<path fill="#40435E" opacity="1.000000" stroke="none" 
	d="
M57.815071,134.447205 
	C60.031593,134.609253 62.264111,135.119003 64.773834,135.877899 
	C63.400967,136.941376 61.750904,137.755737 60.100842,138.570099 
	C60.279705,139.112411 60.458569,139.654724 60.637432,140.197037 
	C63.904644,139.238937 67.147423,138.181305 70.450790,137.370514 
	C71.818558,137.034821 73.316055,137.227661 74.465591,137.810349 
	C73.574783,140.589264 72.972916,142.737976 72.064369,144.885696 
	C70.585968,144.563400 69.414253,144.242096 68.242538,143.920776 
	C66.098450,143.671280 63.954365,143.421799 61.394039,143.230240 
	C59.033009,142.155884 56.650402,141.364441 55.367699,139.716721 
	C54.882309,139.093216 56.935188,136.493713 57.815071,134.447205 
z"/>
<path fill="#3D384E" opacity="1.000000" stroke="none" 
	d="
M108.617218,146.056335 
	C109.024986,148.124130 109.024986,150.166077 109.024986,152.208008 
	C108.569443,152.410507 108.113899,152.613007 107.658363,152.815506 
	C106.117561,151.607712 104.576767,150.399918 102.735237,149.091705 
	C101.412163,143.377441 100.389816,137.763596 99.367470,132.149750 
	C99.841255,132.022507 100.315041,131.895279 100.788826,131.768051 
	C104.102333,135.069061 106.857613,138.652420 107.024544,143.747803 
	C107.049866,144.520798 107.796463,145.270187 108.617218,146.056335 
z"/>
<path fill="#4A4965" opacity="1.000000" stroke="none" 
	d="
M123.672737,149.915802 
	C123.995987,149.981979 124.068176,150.315689 124.071938,150.486084 
	C122.653885,151.162628 121.232071,151.668762 119.432800,152.243317 
	C113.694336,151.393036 115.366470,157.139236 112.542343,159.085815 
	C109.697701,157.486755 108.646057,155.660873 110.650070,152.449799 
	C111.677460,150.803604 111.173897,148.201965 111.368034,145.965179 
	C112.665863,145.576233 114.232529,145.106705 115.899078,144.344681 
	C118.037254,145.343140 120.075554,146.634094 122.458427,147.950195 
	C122.985168,148.600082 123.167328,149.224854 123.672737,149.915802 
z"/>
<path fill="#383245" opacity="1.000000" stroke="none" 
	d="
M92.987930,151.647095 
	C91.755806,152.172958 90.521461,152.327835 89.042694,151.982819 
	C88.876747,150.636932 88.955215,149.790939 89.033676,148.944946 
	C91.148071,143.359802 93.262466,137.774658 95.376862,132.189514 
	C95.891815,132.371689 96.406776,132.553879 96.921738,132.736053 
	C98.313934,139.455795 96.573273,145.550278 92.987930,151.647095 
z"/>
<path fill="#4A4965" opacity="1.000000" stroke="none" 
	d="
M88.929634,148.583588 
	C88.955215,149.790939 88.876747,150.636932 88.880394,151.733368 
	C87.992622,154.675262 87.022736,157.366714 86.025192,160.442566 
	C85.384026,160.421280 84.770523,160.015579 84.363617,158.969940 
	C85.962334,153.134064 84.261620,148.762558 80.967712,144.815750 
	C81.791214,143.868011 84.822716,143.756973 82.214790,141.424698 
	C82.025124,141.255066 82.948906,139.840424 83.683121,138.994995 
	C85.581398,138.790848 87.151566,138.596344 88.825584,138.388962 
	C88.825584,141.701340 88.825584,144.961792 88.929634,148.583588 
M84.502625,140.475479 
	C84.502625,140.475479 84.516731,140.516006 84.502625,140.475479 
z"/>
<path fill="#9A8FD4" opacity="1.000000" stroke="none" 
	d="
M132.132233,127.325867 
	C138.016907,126.574318 144.154266,126.033287 150.658752,125.663849 
	C150.723083,127.034187 150.420258,128.232925 150.072647,129.800232 
	C145.613525,130.198776 141.199203,130.228729 136.364136,130.130035 
	C134.757217,129.179703 133.571060,128.358047 132.132233,127.325867 
z"/>
<path fill="#383245" opacity="1.000000" stroke="none" 
	d="
M123.732040,78.690048 
	C124.014496,79.693214 124.009605,80.457832 123.622650,81.580772 
	C121.797218,82.960938 120.353844,83.982773 118.910477,85.004623 
	C116.353065,84.374809 113.795654,83.744987 110.875946,82.941513 
	C112.885490,82.341377 115.257324,81.914886 117.929558,81.434380 
	C117.474937,80.815598 116.929787,80.073586 115.738045,78.451485 
	C118.732727,78.451485 121.088715,78.451485 123.732040,78.690048 
z"/>
<path fill="#E0E3E5" opacity="1.000000" stroke="none" 
	d="
M72.371048,144.886673 
	C72.972916,142.737976 73.574783,140.589264 74.421509,138.172211 
	C74.964394,137.950836 75.262413,137.997803 76.007599,138.114059 
	C75.990303,142.134552 75.525833,146.085770 75.058670,150.841156 
	C75.178848,152.375229 75.301712,153.105118 75.424583,153.835022 
	C74.935341,153.827133 74.446091,153.819260 73.546318,153.325317 
	C72.880875,150.188400 72.625961,147.537537 72.371048,144.886673 
z"/>
<path fill="#383245" opacity="1.000000" stroke="none" 
	d="
M136.906815,83.974861 
	C136.103882,83.297295 135.300964,82.619728 134.354797,81.723953 
	C133.959579,80.789528 133.707596,80.073296 133.447372,79.333679 
	C135.135620,78.944099 136.709229,78.580978 138.646896,78.222992 
	C139.003342,79.188080 138.995728,80.148018 138.889099,81.793427 
	C139.331024,83.188660 139.871964,83.898415 140.227478,84.775185 
	C140.042053,84.942192 139.669662,85.274529 139.373596,85.165054 
	C138.353958,84.695343 137.630386,84.335098 136.906815,83.974861 
z"/>
<path fill="#383245" opacity="1.000000" stroke="none" 
	d="
M72.185989,124.182220 
	C71.003769,123.581375 70.110580,122.838295 69.098770,121.758850 
	C70.838943,121.291054 72.697746,121.159622 74.556557,121.028191 
	C74.773811,121.329285 74.991058,121.630379 75.208313,121.931473 
	C74.297211,122.634308 73.386108,123.337151 72.185989,124.182220 
z"/>
<path fill="#5A90BB" opacity="1.000000" stroke="none" 
	d="
M60.160965,126.288559 
	C62.129780,126.304115 64.236427,126.636925 66.689697,127.039986 
	C65.981468,127.522789 64.926598,127.935341 63.523735,128.416290 
	C62.216755,127.858376 61.257778,127.232086 60.160965,126.288559 
z"/>
<path fill="#4A4965" opacity="1.000000" stroke="none" 
	d="
M111.175285,138.209900 
	C111.637337,137.915802 112.040924,137.887329 112.444504,137.858841 
	C112.133606,138.231415 111.822708,138.604004 111.277145,138.995499 
	C111.067253,138.834793 111.092033,138.655167 111.175285,138.209900 
z"/>
<path fill="#3D384E" opacity="1.000000" stroke="none" 
	d="
M136.656799,120.015152 
	C136.400940,120.311798 135.802216,120.573792 134.869904,120.840744 
	C135.128860,120.557297 135.721390,120.268890 136.656799,120.015152 
z"/>
<path fill="#3D384E" opacity="1.000000" stroke="none" 
	d="
M124.373901,122.315201 
	C123.734398,122.276176 123.461967,121.918907 123.189529,121.561646 
	C123.755974,121.415985 124.322411,121.270332 125.164215,121.223190 
	C125.206726,121.546791 124.973846,121.771873 124.373901,122.315201 
z"/>
<path fill="#383245" opacity="1.000000" stroke="none" 
	d="
M124.192146,74.493271 
	C123.643906,74.562233 123.300484,74.297783 122.957062,74.033325 
	C123.437027,74.075508 123.916992,74.117683 124.192146,74.493271 
z"/>
<path fill="#383245" opacity="1.000000" stroke="none" 
	d="
M118.113861,50.300938 
	C118.184196,49.945179 118.354713,49.861446 118.795624,49.867397 
	C118.782021,50.162373 118.498032,50.367672 118.113861,50.300938 
z"/>
<path fill="#383245" opacity="1.000000" stroke="none" 
	d="
M94.239723,112.304413 
	C94.548889,112.308929 94.622841,112.540695 94.696800,112.772469 
	C94.466034,112.692200 94.235275,112.611931 94.239723,112.304413 
z"/>
<path fill="#3D384E" opacity="1.000000" stroke="none" 
	d="
M122.922684,136.074860 
	C122.846085,135.915558 122.946022,135.580124 123.246231,135.392700 
	C123.446503,135.540726 123.099228,135.898712 122.922684,136.074860 
z"/>
<path fill="#B5A7E9" opacity="1.000000" stroke="none" 
	d="
M163.165970,112.879852 
	C157.607651,113.060318 152.267654,112.994316 146.462311,112.980759 
	C137.429581,113.022346 128.851303,113.243126 120.302338,112.840866 
	C118.112740,112.737839 116.015762,110.666237 114.328644,109.119171 
	C116.453621,108.627426 118.126183,108.515556 119.798744,108.403687 
	C126.225685,108.318710 132.652634,108.233734 140.001556,108.141571 
	C147.945709,108.211273 154.967911,108.288155 161.990097,108.365051 
	C163.115723,108.589127 164.241348,108.813202 165.718781,109.062202 
	C165.175156,110.269218 164.279724,111.451309 163.165970,112.879852 
z"/>
<path fill="#C6C3FA" opacity="1.000000" stroke="none" 
	d="
M138.530426,99.905396 
	C138.375931,101.298225 137.758301,102.619499 137.051147,104.241089 
	C129.303223,104.647240 121.480545,103.836411 114.042206,105.169746 
	C108.771782,106.114471 108.670021,103.912598 107.943718,99.833855 
	C118.208519,99.833855 128.137909,99.833855 138.530426,99.905396 
z"/>
<path fill="#353043" opacity="1.000000" stroke="none" 
	d="
M162.365967,108.268204 
	C154.967911,108.288155 147.945709,108.211273 140.461731,108.048965 
	C140.001755,107.225014 140.003571,106.486504 140.002777,105.378731 
	C148.487473,105.009476 156.974808,105.009476 165.462128,105.009476 
	C165.604675,105.403236 165.747223,105.796997 165.889771,106.190758 
	C164.840469,106.850960 163.791153,107.511162 162.365967,108.268204 
z"/>
<path fill="#E0E3E5" opacity="1.000000" stroke="none" 
	d="
M118.989532,85.360573 
	C120.353844,83.982773 121.797218,82.960938 123.622162,81.963089 
	C125.599182,84.631599 127.194626,87.276115 129.280838,90.734100 
	C123.585632,91.204002 120.420525,90.088364 118.989532,85.360573 
z"/>
<path fill="#E4E9EA" opacity="1.000000" stroke="none" 
	d="
M136.883881,84.355919 
	C137.630386,84.335098 138.353958,84.695343 139.450806,85.454178 
	C140.106766,86.098976 140.389450,86.345184 140.672134,86.591393 
	C140.585724,85.930321 140.499313,85.269249 140.412918,84.608177 
	C139.871964,83.898415 139.331024,83.188660 138.874100,82.153107 
	C139.950119,81.896545 140.942123,81.965767 142.459641,82.382690 
	C143.970337,84.159973 144.955521,85.589554 145.940704,87.019135 
	C145.940704,88.283707 145.940704,89.548279 145.940704,91.067482 
	C141.591751,90.428093 137.627197,89.899071 136.883881,84.355919 
z"/>
<path fill="#383245" opacity="1.000000" stroke="none" 
	d="
M146.167160,86.766075 
	C144.955521,85.589554 143.970337,84.159973 142.829849,82.434265 
	C145.208481,81.240562 147.742432,80.342995 151.639481,78.962601 
	C149.297775,82.333023 147.845688,84.423019 146.167160,86.766075 
z"/>
<path fill="#353043" opacity="1.000000" stroke="none" 
	d="
M119.513153,108.293907 
	C118.126183,108.515556 116.453621,108.627426 114.357445,108.719543 
	C115.698410,108.527893 117.462990,108.356003 119.513153,108.293907 
z"/>
<path fill="#E0E3E5" opacity="1.000000" stroke="none" 
	d="
M117.567352,63.249916 
	C118.212959,59.286400 120.417732,57.504921 125.405434,56.989025 
	C123.725143,60.007439 122.634499,62.372189 121.093948,64.394150 
	C120.783333,64.801834 118.767410,63.910229 117.567352,63.249916 
z"/>
<path fill="#E0E3E5" opacity="1.000000" stroke="none" 
	d="
M109.510696,68.886963 
	C109.813972,67.425018 110.047707,65.743660 110.915710,65.298187 
	C112.105278,64.687683 113.776245,65.015221 115.240906,64.940742 
	C114.628204,66.768867 114.429062,68.934059 113.289238,70.332573 
	C112.092560,71.800858 110.103523,72.202095 109.510696,68.886963 
z"/>
<path fill="#3D384E" opacity="1.000000" stroke="none" 
	d="
M148.188293,120.753296 
	C148.132599,120.570892 148.332809,120.369545 148.755585,120.099350 
	C148.867233,120.307404 148.689255,120.542023 148.188293,120.753296 
z"/>
<path fill="#383245" opacity="1.000000" stroke="none" 
	d="
M50.497929,121.918442 
	C50.970470,122.670998 50.983284,123.450745 50.997971,124.620415 
	C46.657211,124.733582 41.840569,127.611511 38.001495,123.983490 
	C38.034031,123.304207 38.066570,122.624916 38.099106,121.945633 
	C42.078804,121.945633 46.058506,121.945633 50.497929,121.918442 
z"/>
<path fill="#383245" opacity="1.000000" stroke="none" 
	d="
M34.546047,116.219994 
	C38.287807,116.141251 42.298714,116.365265 46.634956,116.830978 
	C42.911926,116.889359 38.863556,116.706055 34.546047,116.219994 
z"/>
<path fill="#2E2B3E" opacity="1.000000" stroke="none" 
	d="
M50.536022,104.605492 
	C57.010902,104.576897 63.025845,104.643288 69.503708,104.644302 
	C74.534149,104.578926 79.101662,104.578926 83.669182,104.578926 
	C83.709564,105.263214 83.749947,105.947495 83.790329,106.631783 
	C76.823395,109.891556 69.167999,107.637276 61.396187,108.263229 
	C51.937965,108.331352 42.942379,108.292206 33.237690,108.190292 
	C32.347923,108.105293 32.167259,108.083046 31.986597,108.060799 
	C31.986597,108.060799 31.647247,107.726059 31.418655,107.657898 
	C30.225163,104.605301 32.223953,104.758659 34.148163,104.757889 
	C39.457478,104.755768 44.766777,104.721832 50.536022,104.605492 
z"/>
<path fill="#4A4965" opacity="1.000000" stroke="none" 
	d="
M88.273476,160.771973 
	C88.254120,160.617218 88.478401,160.425598 88.935303,160.173904 
	C88.962204,160.328934 88.745270,160.536026 88.273476,160.771973 
z"/>
<path fill="#4D5F80" opacity="1.000000" stroke="none" 
	d="
M72.064362,144.885696 
	C72.625961,147.537537 72.880875,150.188400 73.183380,153.270233 
	C72.932594,154.246368 72.634209,154.791534 72.175827,155.601837 
	C68.311905,156.029938 66.963097,153.944397 67.184341,150.595688 
	C67.314262,148.629318 67.740822,146.682571 68.138245,144.323883 
	C69.414253,144.242096 70.585968,144.563400 72.064362,144.885696 
z"/>
<path fill="#90C4DD" opacity="1.000000" stroke="none" 
	d="
M32.055561,108.220078 
	C32.167259,108.083046 32.347923,108.105293 32.773521,108.248093 
	C32.720478,108.372215 32.422501,108.375786 32.055561,108.220078 
z"/>
<path fill="#4D5F80" opacity="1.000000" stroke="none" 
	d="
M75.751923,153.840393 
	C75.301712,153.105118 75.178848,152.375229 75.120941,151.275955 
	C76.896500,148.970779 78.607094,147.034988 80.642700,144.957474 
	C84.261620,148.762558 85.962334,153.134064 84.363930,158.656647 
	C82.332603,155.906311 80.882774,152.239319 75.751923,153.840393 
z"/>
<path fill="#353043" opacity="1.000000" stroke="none" 
	d="
M75.921806,84.958336 
	C75.821823,85.435532 75.524269,85.746429 75.226715,86.057327 
	C75.116730,85.707733 75.006744,85.358139 75.109398,84.738281 
	C75.456100,84.576027 75.590164,84.684029 75.921806,84.958336 
z"/>
<path fill="#4A4965" opacity="1.000000" stroke="none" 
	d="
M114.315659,142.030777 
	C113.975883,141.111832 113.975883,140.193253 113.975883,139.274689 
	C114.207275,139.219971 114.438667,139.165268 114.670067,139.110550 
	C115.053101,139.904739 115.436142,140.698929 115.916443,141.783356 
	C115.560951,142.059433 115.108200,142.045288 114.315659,142.030777 
z"/>
<path fill="#3D384E" opacity="1.000000" stroke="none" 
	d="
M84.509674,140.495743 
	C84.516731,140.516006 84.502625,140.475479 84.509674,140.495743 
z"/>
<path fill="#383245" opacity="1.000000" stroke="none" 
	d="
M140.227478,84.775185 
	C140.499313,85.269249 140.585724,85.930321 140.672134,86.591393 
	C140.389450,86.345184 140.106766,86.098976 139.746872,85.563644 
	C139.669662,85.274529 140.042053,84.942192 140.227478,84.775185 
z"/>
</svg>